<svg width="25" height="24" viewBox="0 0 25 24" fill="none" xmlns="http://www.w3.org/2000/svg">
<path d="M18.385 12.6832C18.3741 10.7159 19.214 9.2333 20.9102 8.14007C19.9615 6.69782 18.5263 5.90458 16.6345 5.7517C14.8432 5.60171 12.8834 6.85935 12.1658 6.85935C11.4074 6.85935 9.67325 5.80362 8.30873 5.80362C5.4927 5.84977 2.5 8.18622 2.5 12.9399C2.5 14.3446 2.74192 15.7955 3.22575 17.2897C3.87268 19.2569 6.20486 24.0769 8.63762 23.9991C9.90973 23.9673 10.8094 23.0414 12.4648 23.0414C14.0712 23.0414 14.903 23.9991 16.3219 23.9991C18.7764 23.9616 20.8857 19.58 21.5 17.607C18.2083 15.96 18.385 12.7841 18.385 12.6832ZM15.5282 3.88543C16.9063 2.14895 16.7813 0.568247 16.7405 0C15.5227 0.0749971 14.1147 0.879774 13.3129 1.86916C12.4295 2.93066 11.9103 4.2431 12.0217 5.72285C13.3373 5.82958 14.5388 5.11134 15.5282 3.88543Z" fill="black"/>
</svg>
