<svg width="25" height="24" viewBox="0 0 25 24" fill="none" xmlns="http://www.w3.org/2000/svg">
<path d="M6.38382 18.1529C6.38382 18.7797 6.90622 19.2913 7.54897 19.2913H8.88096V22.5161C8.88096 23.3331 9.55105 24 10.3743 24C11.2003 24 11.8677 23.3357 11.8677 22.5161V19.2886H14.1925V22.5135C14.1925 23.3304 14.8626 23.9973 15.6858 23.9973C16.5118 23.9973 17.1792 23.3331 17.1792 22.5135V19.2886H18.5112C19.1539 19.2886 19.6763 18.777 19.6763 18.1503V7.56502H6.38382V18.1529ZM16.1508 2.07955L17.3789 0.338553C17.45 0.236772 17.4336 0.100171 17.3378 0.0332095C17.2421 -0.0310734 17.1054 0.00106819 17.0342 0.102849L15.7597 1.91348C14.92 1.58939 13.9846 1.40993 13.0027 1.40993C12.0208 1.40993 11.0854 1.58939 10.2458 1.91348L8.97121 0.105528C8.9001 0.0037466 8.76335 -0.0310732 8.66762 0.0358881C8.57189 0.100171 8.55548 0.234093 8.62659 0.341231L9.85465 2.08223C7.90179 2.97147 6.53425 4.65622 6.35921 6.62488H19.6517C19.4712 4.65354 18.1009 2.96879 16.1508 2.07955ZM10.1965 4.82496C10.051 4.82496 9.90877 4.7827 9.78778 4.70353C9.66679 4.62436 9.57248 4.51184 9.5168 4.38018C9.46111 4.24853 9.44654 4.10366 9.47493 3.96389C9.50332 3.82413 9.57339 3.69575 9.67629 3.59498C9.77918 3.49422 9.91028 3.4256 10.053 3.3978C10.1957 3.37 10.3436 3.38426 10.4781 3.4388C10.6125 3.49333 10.7274 3.58568 10.8083 3.70417C10.8891 3.82265 10.9323 3.96195 10.9323 4.10446C10.9318 4.29539 10.8541 4.47837 10.7162 4.61338C10.5784 4.7484 10.3915 4.82447 10.1965 4.82496ZM15.8965 4.82496C15.7509 4.82496 15.6087 4.7827 15.4877 4.70353C15.3667 4.62436 15.2724 4.51184 15.2167 4.38018C15.161 4.24853 15.1465 4.10366 15.1748 3.96389C15.2032 3.82413 15.2733 3.69575 15.3762 3.59498C15.4791 3.49422 15.6102 3.4256 15.7529 3.3978C15.8956 3.37 16.0436 3.38426 16.178 3.4388C16.3124 3.49333 16.4274 3.58568 16.5082 3.70417C16.589 3.82265 16.6322 3.96195 16.6322 4.10446C16.6317 4.29539 16.554 4.47837 16.4161 4.61338C16.2783 4.7484 16.0914 4.82447 15.8965 4.82496ZM22.0066 7.52216C21.1806 7.52216 20.5133 8.18642 20.5133 9.00603V14.8022C20.5133 15.6191 21.1834 16.2861 22.0066 16.2861C22.8326 16.2861 23.5 15.6218 23.5 14.8022V9.00335C23.5027 8.18374 22.8354 7.52216 22.0066 7.52216ZM3.99336 7.52216C3.16736 7.52216 2.5 8.18642 2.5 9.00603V14.8022C2.5 15.6191 3.1701 16.2861 3.99336 16.2861C4.81935 16.2861 5.48671 15.6218 5.48671 14.8022V9.00335C5.48671 8.18374 4.81662 7.52216 3.99336 7.52216Z" fill="#2DB155"/>
</svg>
