<svg width="30" height="30" viewBox="0 0 30 30" fill="none" xmlns="http://www.w3.org/2000/svg">
<path d="M23.9062 22.5002H6.09375C5.57598 22.5002 5.15625 22.92 5.15625 23.4377V24.3752C5.15625 24.893 5.57598 25.3127 6.09375 25.3127H23.9062C24.424 25.3127 24.8438 24.893 24.8438 24.3752V23.4377C24.8438 22.92 24.424 22.5002 23.9062 22.5002Z" fill="#FADF7D"/>
<path d="M23.9062 24.3752H6.09375C5.84534 24.3745 5.60731 24.2755 5.43166 24.0998C5.256 23.9242 5.15699 23.6862 5.15625 23.4377V24.3752C5.15699 24.6237 5.256 24.8617 5.43166 25.0373C5.60731 25.213 5.84534 25.312 6.09375 25.3127H23.9062C24.1547 25.312 24.3927 25.213 24.5683 25.0373C24.744 24.8617 24.843 24.6237 24.8438 24.3752V23.4377C24.843 23.6862 24.744 23.9242 24.5683 24.0998C24.3927 24.2755 24.1547 24.3745 23.9062 24.3752Z" fill="#FFBF40"/>
<path d="M3.37031 10.0085C3.02122 10.2369 2.60593 10.3423 2.19016 10.3082C1.77438 10.274 1.38188 10.1021 1.07477 9.81978C0.767658 9.53745 0.563474 9.16075 0.494533 8.74931C0.425592 8.33787 0.495832 7.9152 0.694136 7.54817C0.89244 7.18114 1.20748 6.89073 1.5894 6.72289C1.97133 6.55506 2.39831 6.51938 2.80279 6.62151C3.20727 6.72365 3.56614 6.95775 3.8226 7.28679C4.07906 7.61582 4.21846 8.02098 4.21875 8.43815C4.21897 8.74979 4.14151 9.05656 3.99337 9.33074C3.84523 9.60492 3.63109 9.83784 3.37031 10.0085Z" fill="#FFC608"/>
<path d="M15.9516 8.17517C15.6639 8.34698 15.3351 8.4377 15 8.4377C14.6649 8.4377 14.3361 8.34698 14.0484 8.17517C13.694 7.9664 13.418 7.64687 13.2631 7.26581C13.1081 6.88474 13.0828 6.4633 13.191 6.06643C13.2992 5.66955 13.5349 5.31927 13.8618 5.06956C14.1887 4.81985 14.5886 4.68457 15 4.68457C15.4114 4.68457 15.8113 4.81985 16.1382 5.06956C16.4651 5.31927 16.7008 5.66955 16.809 6.06643C16.9172 6.4633 16.8919 6.88474 16.7369 7.26581C16.582 7.64687 16.306 7.9664 15.9516 8.17517Z" fill="#FFC608"/>
<path d="M27.6563 10.3127C27.2854 10.3127 26.9229 10.2028 26.6146 9.99675C26.3062 9.79072 26.0659 9.49789 25.924 9.15528C25.7821 8.81266 25.7449 8.43567 25.8173 8.07195C25.8896 7.70824 26.0682 7.37414 26.3304 7.11192C26.5926 6.8497 26.9267 6.67112 27.2905 6.59877C27.6542 6.52643 28.0312 6.56356 28.3738 6.70547C28.7164 6.84739 29.0092 7.08771 29.2153 7.39605C29.4213 7.70439 29.5313 8.06691 29.5313 8.43775C29.5313 8.93503 29.3337 9.41194 28.9821 9.76357C28.6304 10.1152 28.1535 10.3127 27.6563 10.3127Z" fill="#FFC608"/>
<path d="M22.5 10.6969C22.3503 10.7537 22.1913 10.7823 22.0312 10.7813C21.8271 10.7818 21.6253 10.737 21.4406 10.6501C21.1434 10.5138 20.9028 10.2785 20.76 9.98433C20.6172 9.6902 20.5811 9.35558 20.6579 9.03776C20.7347 8.71995 20.9196 8.43871 21.1809 8.24221C21.4422 8.0457 21.7637 7.94615 22.0903 7.96061C22.417 7.97506 22.7284 8.10262 22.9714 8.32143C23.2143 8.54025 23.3736 8.83672 23.422 9.16007C23.4704 9.48342 23.4049 9.81355 23.2367 10.0939C23.0685 10.3743 22.8081 10.5875 22.5 10.6969Z" fill="#FF9C00"/>
<path d="M8.5586 10.6501C8.37386 10.737 8.17214 10.7818 7.96798 10.7813C7.80786 10.7823 7.64894 10.7537 7.49923 10.697C7.19313 10.5875 6.93457 10.3751 6.76776 10.0961C6.60094 9.81706 6.53623 9.48876 6.58469 9.16731C6.63315 8.84587 6.79176 8.55123 7.03342 8.3338C7.27507 8.11636 7.58476 7.98962 7.90952 7.97525C8.23428 7.96088 8.55395 8.05977 8.81387 8.25502C9.07378 8.45026 9.2578 8.72973 9.33446 9.04564C9.41112 9.36155 9.37566 9.69429 9.23414 9.98694C9.09262 10.2796 8.85383 10.514 8.5586 10.6501Z" fill="#FF9C00"/>
<path d="M12.0656 16.3028C11.4984 17.2075 10.7719 17.8122 9.84375 17.8122C9.16875 17.8122 8.33906 17.1512 7.5 16.209V10.6965C7.64972 10.7533 7.80864 10.7819 7.96875 10.7809C8.17291 10.7814 8.37463 10.7366 8.55938 10.6497C8.93906 11.6668 10.1906 14.7184 12.0656 16.3028Z" fill="#FFAA00"/>
<path d="M22.4986 10.6965V16.209C21.6595 17.1512 20.8298 17.8122 20.1548 17.8122C19.2267 17.8122 18.5001 17.2075 17.9329 16.3028C19.8079 14.7184 21.0595 11.6668 21.4392 10.6497C21.6239 10.7366 21.8257 10.7814 22.0298 10.7809C22.1899 10.7819 22.3488 10.7533 22.4986 10.6965Z" fill="#FFAA00"/>
<path d="M15.9703 20.9914C16.0517 21.053 16.1498 21.0886 16.2518 21.0933C16.3538 21.0981 16.4548 21.0719 16.5416 21.0181C16.6284 20.9643 16.6968 20.8855 16.7379 20.792C16.779 20.6986 16.7909 20.5948 16.7719 20.4945L16.5234 19.2852L17.1844 18.6383C17.2522 18.5711 17.2985 18.4854 17.3176 18.3919C17.3366 18.2984 17.3275 18.2013 17.2913 18.113C17.2552 18.0247 17.1937 17.9491 17.1146 17.8957C17.0355 17.8424 16.9423 17.8137 16.8469 17.8133H15.9328L15.4547 16.6883C15.4125 16.6038 15.3476 16.5327 15.2673 16.483C15.187 16.4333 15.0944 16.407 15 16.407C14.9056 16.407 14.813 16.4333 14.7327 16.483C14.6524 16.5327 14.5875 16.6038 14.5453 16.6883L14.0672 17.8133H13.1531C13.0577 17.8137 12.9645 17.8424 12.8854 17.8957C12.8063 17.9491 12.7448 18.0247 12.7087 18.113C12.6725 18.2013 12.6634 18.2984 12.6824 18.3919C12.7015 18.4854 12.7478 18.5711 12.8156 18.6383L13.4766 19.2852L13.2281 20.4945C13.2091 20.5948 13.221 20.6986 13.2621 20.792C13.3032 20.8855 13.3716 20.9643 13.4584 21.0181C13.5451 21.0719 13.6462 21.0981 13.7482 21.0933C13.8502 21.0886 13.9483 21.053 14.0297 20.9914L15 20.2789L15.9703 20.9914ZM22.5 16.2102C24.3281 14.1664 26.2078 10.7867 26.6297 10.0086C26.935 10.2078 27.2917 10.3137 27.6562 10.3133L23.9062 20.6258V22.5008H6.09375V20.6258L2.34375 10.3133C2.70828 10.3137 3.06502 10.2078 3.37031 10.0086C3.79219 10.7867 5.67188 14.1664 7.5 16.2102C8.33906 17.1523 9.16875 17.8133 9.84375 17.8133C10.7719 17.8133 11.4984 17.2086 12.0656 16.3039C13.5984 13.8617 13.9828 9.20703 14.0484 8.17578C14.3361 8.34759 14.6649 8.43831 15 8.43831C15.3351 8.43831 15.6639 8.34759 15.9516 8.17578C16.0172 9.20703 16.4016 13.8617 17.9344 16.3039C18.5016 17.2086 19.2281 17.8133 20.1562 17.8133C20.8312 17.8133 21.6609 17.1523 22.5 16.2102Z" fill="#FADF7D"/>
<path d="M15.4545 16.6878L15.9326 17.8128H16.8467C16.9421 17.8132 17.0352 17.8419 17.1144 17.8952C17.1935 17.9486 17.255 18.0242 17.2911 18.1125C17.3272 18.2008 17.3364 18.2979 17.3173 18.3914C17.2983 18.4849 17.2519 18.5706 17.1842 18.6378L16.5232 19.2847L16.7717 20.494C16.7907 20.5944 16.7788 20.6981 16.7377 20.7915C16.6966 20.885 16.6282 20.9638 16.5414 21.0176C16.4546 21.0714 16.3536 21.0976 16.2516 21.0929C16.1496 21.0881 16.0515 21.0526 15.9701 20.9909L14.9998 20.2784L14.0295 20.9909C13.9481 21.0526 13.8499 21.0881 13.7479 21.0929C13.646 21.0976 13.5449 21.0714 13.4582 21.0176C13.3714 20.9638 13.3029 20.885 13.2618 20.7915C13.2207 20.6981 13.2089 20.5944 13.2279 20.494L13.4763 19.2847L12.8154 18.6378C12.7476 18.5706 12.7013 18.4849 12.6822 18.3914C12.6632 18.2979 12.6723 18.2008 12.7084 18.1125C12.7446 18.0242 12.8061 17.9486 12.8852 17.8952C12.9643 17.8419 13.0575 17.8132 13.1529 17.8128H14.067L14.5451 16.6878C14.5873 16.6033 14.6521 16.5322 14.7324 16.4825C14.8128 16.4328 14.9053 16.4065 14.9998 16.4065C15.0942 16.4065 15.1868 16.4328 15.2671 16.4825C15.3474 16.5322 15.4123 16.6033 15.4545 16.6878Z" fill="#D1013E"/>
<path d="M15.9517 7.23844C15.664 7.41025 15.3352 7.50097 15.0001 7.50097C14.665 7.50097 14.3362 7.41025 14.0485 7.23844C13.6231 6.98953 13.3136 6.58212 13.1879 6.10547C13.0827 6.49718 13.11 6.9127 13.2657 7.28723C13.4214 7.66177 13.6966 7.97425 14.0485 8.17594C14.3362 8.34775 14.665 8.43847 15.0001 8.43847C15.3352 8.43847 15.664 8.34775 15.9517 8.17594C16.3036 7.97425 16.5788 7.66177 16.7345 7.28723C16.8902 6.9127 16.9175 6.49718 16.8123 6.10547C16.6866 6.58212 16.3771 6.98953 15.9517 7.23844Z" fill="#FFAA00"/>
<path d="M28.6079 9.11344C28.3202 9.28525 27.9914 9.37597 27.6564 9.37597C27.3213 9.37597 26.9925 9.28525 26.7048 9.11344C26.2793 8.86453 25.9698 8.45712 25.8442 7.98047C25.7389 8.37218 25.7663 8.7877 25.922 9.16223C26.0776 9.53677 26.3529 9.84925 26.7048 10.0509C26.9925 10.2227 27.3213 10.3135 27.6564 10.3135C27.9914 10.3135 28.3202 10.2227 28.6079 10.0509C28.9598 9.84925 29.2351 9.53677 29.3908 9.16223C29.5464 8.7877 29.5738 8.37218 29.4685 7.98047C29.3429 8.45712 29.0334 8.86453 28.6079 9.11344Z" fill="#FFAA00"/>
<path d="M3.29542 9.11344C3.00775 9.28525 2.67893 9.37597 2.34386 9.37597C2.00878 9.37597 1.67996 9.28525 1.39229 9.11344C0.966815 8.86453 0.65734 8.45712 0.531669 7.98047C0.426426 8.37218 0.453778 8.7877 0.609459 9.16223C0.76514 9.53677 1.0404 9.84925 1.39229 10.0509C1.67996 10.2227 2.00878 10.3135 2.34386 10.3135C2.67893 10.3135 3.00775 10.2227 3.29542 10.0509C3.64732 9.84925 3.92257 9.53677 4.07825 9.16223C4.23393 8.7877 4.26129 8.37218 4.15604 7.98047C4.03037 8.45712 3.7209 8.86453 3.29542 9.11344Z" fill="#FFAA00"/>
<path d="M8.55939 9.71341C8.37465 9.80031 8.17293 9.84514 7.96877 9.84466C7.80865 9.84565 7.64973 9.81705 7.50002 9.76028C7.30319 9.69224 7.12424 9.58071 6.97646 9.43399C6.82868 9.28726 6.71587 9.10911 6.64642 8.91278C6.59263 9.06135 6.56427 9.21792 6.56252 9.37591C6.56112 9.66656 6.65079 9.95035 6.81893 10.1874C6.98708 10.4245 7.22525 10.603 7.50002 10.6978C7.64973 10.7545 7.80865 10.7832 7.96877 10.7822C8.17293 10.7826 8.37465 10.7378 8.55939 10.6509C8.87839 10.5069 9.13108 10.2475 9.26672 9.92479C9.40236 9.60212 9.41091 9.24008 9.29064 8.91138C9.22855 9.08715 9.13184 9.24869 9.00624 9.38645C8.88064 9.52421 8.7287 9.63539 8.55939 9.71341Z" fill="#DE8800"/>
<path d="M22.6219 9.71341C22.4371 9.80031 22.2354 9.84514 22.0313 9.84466C21.8712 9.84565 21.7122 9.81705 21.5625 9.76028C21.3657 9.69224 21.1867 9.58071 21.039 9.43399C20.8912 9.28726 20.7784 9.10911 20.7089 8.91278C20.6551 9.06135 20.6268 9.21792 20.625 9.37591C20.6236 9.66656 20.7133 9.95035 20.8814 10.1874C21.0496 10.4245 21.2878 10.603 21.5625 10.6978C21.7122 10.7545 21.8712 10.7832 22.0313 10.7822C22.2354 10.7826 22.4371 10.7378 22.6219 10.6509C22.9409 10.5069 23.1936 10.2475 23.3292 9.92479C23.4649 9.60212 23.4734 9.24008 23.3531 8.91138C23.291 9.08715 23.1943 9.24869 23.0687 9.38645C22.9431 9.52421 22.7912 9.63539 22.6219 9.71341Z" fill="#DE8800"/>
<path d="M8.44406 16.2465C8.29938 16.165 8.17905 16.0463 8.0955 15.9028C8.01195 15.7593 7.9682 15.5961 7.96875 15.43V12.6559C7.96875 12.4073 8.06752 12.1688 8.24334 11.993C8.41915 11.8172 8.65761 11.7184 8.90625 11.7184H8.99484C8.79937 11.274 8.65266 10.9 8.55938 10.6497C8.37463 10.7366 8.17291 10.7814 7.96875 10.7809C7.80864 10.7819 7.64972 10.7533 7.5 10.6965V16.209C8.33906 17.1512 9.16875 17.8122 9.84375 17.8122C10.7719 17.8122 11.4984 17.2075 12.0656 16.3028C12.0187 16.262 11.9719 16.2165 11.925 16.1739C10.6275 17.2178 9.17484 16.6576 8.44406 16.2465Z" fill="#FF9C00"/>
<path d="M22.0298 10.7809C21.8257 10.7814 21.6239 10.7366 21.4392 10.6497C21.3454 10.9 21.1992 11.274 21.0037 11.7184H21.0923C21.341 11.7184 21.5794 11.8172 21.7552 11.993C21.931 12.1688 22.0298 12.4073 22.0298 12.6559V15.43C22.0304 15.5961 21.9866 15.7593 21.9031 15.9028C21.8195 16.0463 21.6992 16.165 21.5545 16.2465C20.8237 16.6576 19.3725 17.2145 18.0764 16.1725C18.0295 16.2156 17.9826 16.2615 17.9329 16.3028C18.5001 17.2075 19.2267 17.8122 20.1548 17.8122C20.8298 17.8122 21.6595 17.1512 22.4986 16.209V10.6965C22.3488 10.7533 22.1899 10.7819 22.0298 10.7809Z" fill="#FF9C00"/>
<path d="M26.5352 11.6122C26.5862 11.5122 26.6711 11.4338 26.7747 11.3908C26.8783 11.3479 26.9938 11.3432 27.1005 11.3778L27.251 11.4279L27.6565 10.3137C27.2919 10.3141 26.9352 10.2082 26.6299 10.009C26.208 10.7872 24.3283 14.1668 22.5002 16.2106C21.7685 17.0323 21.0443 17.6393 20.4232 17.7814C21.2472 17.6295 23.8699 16.7468 26.5352 11.6122Z" fill="#FFBF40"/>
<path d="M15.9703 20.9918L15.4725 20.6262H14.5275L14.0297 20.9918C13.9572 21.046 13.8714 21.0798 13.7814 21.0896C13.6914 21.0993 13.6004 21.0848 13.5179 21.0475C13.4354 21.0101 13.3645 20.9513 13.3124 20.8773C13.2604 20.8032 13.2292 20.7165 13.222 20.6262H8.90625C8.53329 20.6262 8.1756 20.4781 7.91188 20.2143C7.64816 19.9506 7.5 19.5929 7.5 19.22L3.64547 11.9393C3.60764 11.8679 3.58892 11.7879 3.59114 11.7071C3.59337 11.6263 3.61645 11.5474 3.65815 11.4782C3.69986 11.4089 3.75876 11.3516 3.82915 11.3118C3.89953 11.2721 3.979 11.2512 4.05984 11.2512H4.07156C3.74062 10.6836 3.49266 10.235 3.36844 10.009C3.06368 10.2079 2.70764 10.3137 2.34375 10.3137L6.09375 20.6262V22.5012H23.9062V20.6262H16.778C16.7708 20.7165 16.7396 20.8032 16.6876 20.8773C16.6355 20.9513 16.5646 21.0101 16.4821 21.0475C16.3996 21.0848 16.3086 21.0993 16.2186 21.0896C16.1286 21.0798 16.0428 21.046 15.9703 20.9918Z" fill="#FFBF40"/>
<path d="M14.4938 10.2538C14.509 10.0157 14.6145 9.79235 14.7887 9.62931C14.9629 9.46627 15.1927 9.37578 15.4312 9.37627H16.0584C16.0008 8.83721 15.9684 8.41018 15.9534 8.17627C15.6658 8.34808 15.3369 8.4388 15.0019 8.4388C14.6668 8.4388 14.338 8.34808 14.0503 8.17627C13.9847 9.20752 13.6003 13.8622 12.0675 16.3044C11.4984 17.2091 10.7719 17.8138 9.84375 17.8138C13.5938 17.8138 14.3438 12.4138 14.4938 10.2538Z" fill="#FFBF40"/>
<path d="M17.7241 17.9337C17.6534 17.7591 17.532 17.6096 17.3756 17.5045C17.2192 17.3994 17.035 17.3435 16.8466 17.344H16.2424L15.8857 16.504C15.8819 16.4953 15.8777 16.4863 15.873 16.4773C15.7924 16.3147 15.6679 16.178 15.5135 16.0827C15.3591 15.9873 15.1812 15.9371 14.9997 15.9378C14.8135 15.9384 14.6314 15.992 14.4745 16.0922C14.3177 16.1925 14.1925 16.3353 14.1138 16.504L13.7571 17.344H13.1528C12.9643 17.3444 12.7801 17.4009 12.6236 17.5062C12.4672 17.6115 12.3457 17.761 12.2744 17.9355C12.2031 18.1101 12.1853 18.302 12.2233 18.4867C12.2613 18.6714 12.3533 18.8406 12.4877 18.9729L12.9653 19.4417L12.7689 20.3993C12.7284 20.5909 12.7476 20.7902 12.8241 20.9705C12.9006 21.1507 13.0305 21.3032 13.1964 21.4071C13.3545 21.5086 13.5383 21.5628 13.7261 21.5632C13.9354 21.5632 14.139 21.4953 14.3064 21.3696L14.9997 20.8596L15.6897 21.3668C15.8488 21.4868 16.041 21.5549 16.2401 21.562C16.4393 21.569 16.6358 21.5146 16.803 21.4062C16.9687 21.3024 17.0986 21.1502 17.1751 20.9702C17.2517 20.7903 17.2712 20.5912 17.231 20.3998L17.0341 19.4407L17.5132 18.972C17.6478 18.8397 17.7398 18.6701 17.7774 18.4851C17.815 18.3001 17.7964 18.1081 17.7241 17.9337ZM17.1841 18.6368L16.5232 19.2837L16.7716 20.4931C16.7906 20.5934 16.7788 20.6971 16.7377 20.7905C16.6966 20.884 16.6281 20.9628 16.5413 21.0166C16.4546 21.0704 16.3535 21.0966 16.2515 21.0919C16.1496 21.0871 16.0514 21.0516 15.97 20.9899L14.9997 20.2784L14.0294 20.9909C13.948 21.0525 13.8499 21.0881 13.7479 21.0928C13.6459 21.0976 13.5449 21.0713 13.4581 21.0175C13.3713 20.9638 13.3029 20.8849 13.2618 20.7915C13.2207 20.698 13.2088 20.5943 13.2278 20.494L13.4763 19.2846L12.8153 18.6378C12.7475 18.5706 12.7012 18.4848 12.6822 18.3913C12.6631 18.2978 12.6722 18.2008 12.7084 18.1125C12.7445 18.0241 12.806 17.9485 12.8851 17.8952C12.9643 17.8418 13.0574 17.8131 13.1528 17.8128H14.0669L14.545 16.6877C14.5872 16.6032 14.6521 16.5322 14.7324 16.4825C14.8127 16.4328 14.9053 16.4065 14.9997 16.4065C15.0942 16.4065 15.1867 16.4328 15.267 16.4825C15.3474 16.5322 15.4122 16.6032 15.4544 16.6877L15.9325 17.8128H16.8466C16.942 17.8131 17.0352 17.8418 17.1143 17.8952C17.1934 17.9485 17.2549 18.0241 17.2911 18.1125C17.3272 18.2008 17.3363 18.2978 17.3173 18.3913C17.2982 18.4848 17.2519 18.5706 17.1841 18.6378V18.6368Z" fill="#FF9C00"/>
<path d="M22.5 9.37524C22.7589 9.37524 22.9688 9.16538 22.9688 8.90649C22.9688 8.64761 22.7589 8.43774 22.5 8.43774C22.2411 8.43774 22.0312 8.64761 22.0312 8.90649C22.0312 9.16538 22.2411 9.37524 22.5 9.37524Z" fill="#FFC608"/>
<path d="M8.4375 9.37524C8.69638 9.37524 8.90625 9.16538 8.90625 8.90649C8.90625 8.64761 8.69638 8.43774 8.4375 8.43774C8.17862 8.43774 7.96875 8.64761 7.96875 8.90649C7.96875 9.16538 8.17862 9.37524 8.4375 9.37524Z" fill="#FFC608"/>
<path d="M15.4688 6.56274C15.7276 6.56274 15.9375 6.35288 15.9375 6.09399C15.9375 5.83511 15.7276 5.62524 15.4688 5.62524C15.2099 5.62524 15 5.83511 15 6.09399C15 6.35288 15.2099 6.56274 15.4688 6.56274Z" fill="#FFFCED"/>
<path d="M28.5938 8.43774C28.8526 8.43774 29.0625 8.22788 29.0625 7.96899C29.0625 7.71011 28.8526 7.50024 28.5938 7.50024C28.3349 7.50024 28.125 7.71011 28.125 7.96899C28.125 8.22788 28.3349 8.43774 28.5938 8.43774Z" fill="#FFFCED"/>
<path d="M3.28125 8.43774C3.54013 8.43774 3.75 8.22788 3.75 7.96899C3.75 7.71011 3.54013 7.50024 3.28125 7.50024C3.02237 7.50024 2.8125 7.71011 2.8125 7.96899C2.8125 8.22788 3.02237 8.43774 3.28125 8.43774Z" fill="#FFFCED"/>
</svg>
