<svg width="42" height="42" viewBox="0 0 42 42" fill="none" xmlns="http://www.w3.org/2000/svg">
<g clip-path="url(#clip0_3077_4920)">
<rect width="42" height="42" rx="6" fill="white"/>
<path d="M33.0638 -3H8.93625C2.34404 -3 -3 2.34404 -3 8.93625V33.0638C-3 39.656 2.34404 45 8.93625 45H33.0638C39.656 45 45 39.656 45 33.0638V8.93625C45 2.34404 39.656 -3 33.0638 -3Z" fill="white"/>
<path d="M15.3053 8.57297L15.293 8.56148L15.275 8.54508C15.2586 8.52949 15.2414 8.51391 15.2241 8.49996L15.2143 8.49094C15.1921 8.47289 15.17 8.45566 15.1478 8.44008L15.1372 8.4327C15.1142 8.41629 15.0904 8.4007 15.0666 8.38676C15.0404 8.37035 15.0133 8.35559 14.9846 8.34164C14.9293 8.3136 14.872 8.28975 14.8131 8.27027H14.8066C14.753 8.25245 14.6981 8.23846 14.6425 8.22844H14.6237C14.5974 8.22844 14.5703 8.22023 14.5416 8.21777H14.5326C14.5088 8.21777 14.485 8.21777 14.4604 8.21777H14.4374C14.4112 8.21777 14.3858 8.21777 14.3595 8.21777H14.348C14.3251 8.21777 14.3013 8.21777 14.2775 8.22352H14.2586C14.2315 8.22352 14.2045 8.23172 14.1766 8.23664C14.1495 8.24156 14.1224 8.24812 14.0946 8.25551H14.0847C14.0286 8.27115 13.9738 8.29089 13.9206 8.31457H13.9149C13.8612 8.33799 13.8094 8.36541 13.7599 8.3966L13.7508 8.40152C13.7028 8.43249 13.6568 8.46646 13.613 8.50324L13.5983 8.51637C13.5769 8.53441 13.5564 8.5541 13.5359 8.57379L8.56975 13.535C8.34237 13.7717 8.21685 14.088 8.22016 14.4162C8.22346 14.7443 8.35532 15.0581 8.58742 15.2901C8.81952 15.522 9.13334 15.6538 9.46149 15.6569C9.78964 15.6601 10.1059 15.5344 10.3424 15.3069L13.166 12.4834V32.54C13.1617 32.7073 13.1909 32.8737 13.252 33.0295C13.313 33.1852 13.4046 33.3272 13.5214 33.447C13.6382 33.5668 13.7778 33.662 13.9319 33.727C14.0861 33.792 14.2517 33.8255 14.419 33.8255C14.5863 33.8255 14.7519 33.792 14.9061 33.727C15.0602 33.662 15.1998 33.5668 15.3166 33.447C15.4333 33.3272 15.525 33.1852 15.586 33.0295C15.647 32.8737 15.6763 32.7073 15.672 32.54V12.4842L18.2503 15.0633C18.4855 15.2984 18.8046 15.4303 19.1372 15.4302C19.4698 15.43 19.7887 15.2978 20.0238 15.0625C20.2588 14.8272 20.3908 14.5081 20.3907 14.1755C20.3905 13.8429 20.2582 13.524 20.023 13.2889L15.3053 8.57297Z" fill="#008795"/>
<path d="M33.4302 13.2889L28.7109 8.57297C28.7073 8.56894 28.7035 8.5651 28.6994 8.56148L28.6814 8.54508C28.665 8.52949 28.6478 8.51391 28.6305 8.49996L28.6207 8.49094C28.5985 8.47289 28.5764 8.45566 28.5534 8.44008L28.5436 8.4327C28.5206 8.41629 28.4968 8.4007 28.473 8.38676C28.446 8.37035 28.4189 8.35559 28.391 8.34164C28.3361 8.31346 28.279 8.2896 28.2204 8.27027H28.2138C28.1588 8.25229 28.1026 8.23831 28.0457 8.22844H28.0268C28.0005 8.22844 27.9743 8.22023 27.9448 8.21777H27.9357C27.9119 8.21777 27.8873 8.21777 27.8635 8.21777H27.8398C27.8135 8.21777 27.7881 8.21777 27.7577 8.21777H27.7462C27.7224 8.21777 27.6995 8.21777 27.6757 8.22352H27.656C27.6289 8.22352 27.6019 8.2309 27.574 8.23664C27.5469 8.24156 27.5198 8.24812 27.4919 8.25551H27.4821C27.4261 8.27131 27.3713 8.29105 27.318 8.31457H27.3131C27.2596 8.33834 27.2078 8.36574 27.1581 8.3966L27.149 8.40152C27.101 8.43249 27.055 8.46646 27.0112 8.50324L26.9965 8.51637C26.9751 8.53441 26.9546 8.5541 26.9341 8.57379L21.977 13.535C21.7496 13.7717 21.6241 14.088 21.6274 14.4162C21.6307 14.7443 21.7625 15.0581 21.9946 15.2901C22.2267 15.522 22.5406 15.6538 22.8687 15.6569C23.1969 15.6601 23.5132 15.5344 23.7497 15.3069L26.5724 12.4834V32.54C26.5724 32.8725 26.7044 33.1913 26.9395 33.4264C27.1746 33.6614 27.4934 33.7935 27.8258 33.7935C28.1582 33.7935 28.4771 33.6614 28.7121 33.4264C28.9472 33.1913 29.0792 32.8725 29.0792 32.54V12.4842L31.6575 15.0633C31.774 15.1797 31.9123 15.272 32.0645 15.3349C32.2166 15.3979 32.3797 15.4303 32.5444 15.4302C32.7091 15.4301 32.8722 15.3976 33.0243 15.3345C33.1764 15.2714 33.3146 15.179 33.431 15.0625C33.5474 14.946 33.6397 14.8077 33.7027 14.6555C33.7656 14.5033 33.798 14.3402 33.7979 14.1755C33.7978 14.0108 33.7653 13.8478 33.7022 13.6957C33.6391 13.5435 33.5467 13.4053 33.4302 13.2889Z" fill="#008795"/>
</g>
<defs>
<clipPath id="clip0_3077_4920">
<rect width="42" height="42" rx="6" fill="white"/>
</clipPath>
</defs>
</svg>
