<svg width="24" height="24" viewBox="0 0 24 24" fill="none" xmlns="http://www.w3.org/2000/svg">
<path d="M19.8901 7.47984L12.4628 17.7637C12.4098 17.8369 12.3403 17.8964 12.2598 17.9375C12.1794 17.9786 12.0903 18 12 18C11.9097 18 11.8206 17.9786 11.7402 17.9375C11.6597 17.8964 11.5902 17.8369 11.5372 17.7637L4.10987 7.47984C4.0472 7.39399 4.00973 7.29237 4.00165 7.1864C3.99358 7.08042 4.01522 6.97429 4.06416 6.87995C4.11242 6.78679 4.1854 6.70873 4.27509 6.65431C4.36479 6.59988 4.46773 6.57121 4.57265 6.57143H19.4274C19.5323 6.57121 19.6352 6.59988 19.7249 6.65431C19.8146 6.70873 19.8876 6.78679 19.9358 6.87995C19.9848 6.97429 20.0064 7.08042 19.9983 7.1864C19.9903 7.29237 19.9528 7.39399 19.8901 7.47984Z" fill="#008795"/>
</svg>
