<svg width="24" height="24" viewBox="0 0 24 24" fill="none" xmlns="http://www.w3.org/2000/svg">
<path d="M19.8901 16.5202L12.4628 6.23628C12.4098 6.16312 12.3403 6.10356 12.2598 6.06249C12.1794 6.02141 12.0903 6 12 6C11.9097 6 11.8206 6.02141 11.7402 6.06249C11.6597 6.10356 11.5902 6.16312 11.5372 6.23628L4.10987 16.5202C4.0472 16.606 4.00973 16.7076 4.00165 16.8136C3.99358 16.9196 4.01522 17.0257 4.06416 17.1201C4.11242 17.2132 4.1854 17.2913 4.27509 17.3457C4.36479 17.4001 4.46773 17.4288 4.57265 17.4286H19.4274C19.5323 17.4288 19.6352 17.4001 19.7249 17.3457C19.8146 17.2913 19.8876 17.2132 19.9358 17.1201C19.9848 17.0257 20.0064 16.9196 19.9983 16.8136C19.9903 16.7076 19.9528 16.606 19.8901 16.5202Z" fill="#008795"/>
</svg>
