<svg width="45" height="52" viewBox="0 0 45 52" fill="none" xmlns="http://www.w3.org/2000/svg">
<rect x="0.5" width="44" height="52" rx="22" fill="#2DB155"/>
<g clip-path="url(#clip0_3077_4701)">
<path d="M16.2058 12.32L15.2167 11.3359L12.907 13.6339L13.9645 14.6861C14.5813 13.784 15.339 12.9851 16.2058 12.32Z" fill="#C7FFEE"/>
<path d="M22.5004 30.9058C28.3024 30.9058 33.0058 26.2259 33.0058 20.4529C33.0058 14.6799 28.3024 10 22.5004 10C16.6984 10 11.995 14.6799 11.995 20.4529C11.995 26.2259 16.6984 30.9058 22.5004 30.9058Z" fill="#6ECAD5"/>
<path opacity="0.1" d="M12.5924 20.4531C12.5924 14.7796 17.1353 10.1623 22.799 10.0049C22.6998 10.0021 22.6002 10.0005 22.5002 10.0005C16.6983 10.0005 11.9949 14.6802 11.9949 20.4531C11.9949 26.226 16.6983 30.9058 22.5003 30.9058C22.6002 30.9058 22.6998 30.9041 22.7991 30.9013C17.1353 30.7439 12.5924 26.1266 12.5924 20.4531Z" fill="black"/>
<path d="M22.5004 29.6801C27.622 29.6801 31.7739 25.549 31.7739 20.4529C31.7739 15.3569 27.622 11.2258 22.5004 11.2258C17.3787 11.2258 13.2268 15.3569 13.2268 20.4529C13.2268 25.549 17.3787 29.6801 22.5004 29.6801Z" fill="#3C3F44"/>
<path d="M21.9408 29.8329C22.8986 29.8329 23.6751 29.0564 23.6751 28.0985C23.6751 27.1407 22.8986 26.3642 21.9408 26.3642C20.9829 26.3642 20.2064 27.1407 20.2064 28.0985C20.2064 29.0564 20.9829 29.8329 21.9408 29.8329Z" fill="#89C947"/>
<path d="M26.2185 18.075C27.1763 18.075 27.9528 17.2985 27.9528 16.3407C27.9528 15.3828 27.1763 14.6063 26.2185 14.6063C25.2606 14.6063 24.4841 15.3828 24.4841 16.3407C24.4841 17.2985 25.2606 18.075 26.2185 18.075Z" fill="#60A041"/>
<path d="M15.6034 25.2135C16.5612 25.2135 17.3377 24.437 17.3377 23.4791C17.3377 22.5213 16.5612 21.7448 15.6034 21.7448C14.6455 21.7448 13.869 22.5213 13.869 23.4791C13.869 24.437 14.6455 25.2135 15.6034 25.2135Z" fill="#EE3835"/>
<path d="M17.9115 28.3301C18.8693 28.3301 19.6458 27.5536 19.6458 26.5958C19.6458 25.6379 18.8693 24.8614 17.9115 24.8614C16.9536 24.8614 16.1771 25.6379 16.1771 26.5958C16.1771 27.5536 16.9536 28.3301 17.9115 28.3301Z" fill="#0481BF"/>
<path d="M27.8586 27.8384C28.8165 27.8384 29.5929 27.0619 29.5929 26.1041C29.5929 25.1462 28.8165 24.3697 27.8586 24.3697C26.9008 24.3697 26.1243 25.1462 26.1243 26.1041C26.1243 27.0619 26.9008 27.8384 27.8586 27.8384Z" fill="#F7931E"/>
<path d="M29.6722 25.4324C30.6301 25.4324 31.4065 24.6559 31.4065 23.698C31.4065 22.7402 30.6301 21.9637 29.6722 21.9637C28.7144 21.9637 27.9379 22.7402 27.9379 23.698C27.9379 24.6559 28.7144 25.4324 29.6722 25.4324Z" fill="#EE3835"/>
<path d="M18.6806 25.4324C19.6385 25.4324 20.415 24.6559 20.415 23.698C20.415 22.7402 19.6385 21.9637 18.6806 21.9637C17.7228 21.9637 16.9463 22.7402 16.9463 23.698C16.9463 24.6559 17.7228 25.4324 18.6806 25.4324Z" fill="#FECF05"/>
<path d="M26.8123 25.0002C27.7702 25.0002 28.5467 24.2237 28.5467 23.2658C28.5467 22.308 27.7702 21.5315 26.8123 21.5315C25.8545 21.5315 25.078 22.308 25.078 23.2658C25.078 24.2237 25.8545 25.0002 26.8123 25.0002Z" fill="#FECF05"/>
<path d="M24.3888 18.9248L29.2313 14.1065C29.0696 13.9368 28.9016 13.7731 28.7275 13.616L23.8691 18.4499C24.0647 18.5824 24.2397 18.7426 24.3888 18.9248Z" fill="#D0D5D5"/>
<path d="M24.387 18.9596L24.3706 18.9396C24.2224 18.7586 24.0493 18.6004 23.856 18.4693L23.8324 18.4533L23.8526 18.4333L28.7267 13.5837L28.7432 13.5986C28.916 13.7545 29.086 13.9199 29.2483 14.0903L29.2641 14.1069L24.387 18.9596ZM23.9057 18.4466C24.0863 18.5721 24.2491 18.7211 24.3904 18.89L29.1985 14.1061C29.047 13.9478 28.8889 13.794 28.7282 13.6483L23.9057 18.4466Z" fill="#D0D5D5"/>
<path d="M21.1315 18.45L16.2731 13.616C16.099 13.7731 15.931 13.9368 15.7693 14.1065L20.6118 18.9248C20.761 18.7427 20.936 18.5825 21.1315 18.45Z" fill="#D0D5D5"/>
<path d="M20.6138 18.9596L15.7366 14.1069L15.7524 14.0903C15.9147 13.9199 16.0847 13.7545 16.2575 13.5986L16.274 13.5837L21.1683 18.4534L21.1448 18.4694C20.9515 18.6003 20.7784 18.7586 20.6301 18.9396L20.6138 18.9596ZM15.8022 14.1061L20.6103 18.89C20.7517 18.721 20.9146 18.572 21.095 18.4466L16.2724 13.6483C16.1118 13.7939 15.9537 13.9478 15.8022 14.1061Z" fill="#D0D5D5"/>
<path d="M20.4871 21.815L15.6287 26.649C15.7866 26.8222 15.9511 26.9894 16.1217 27.1502L20.9643 22.3319C20.7812 22.1836 20.6202 22.0095 20.4871 21.815Z" fill="#D0D5D5"/>
<path d="M16.1221 27.1829L16.1055 27.1672C15.9344 27.0059 15.7681 26.8368 15.6113 26.6647L15.5962 26.6481L15.6121 26.6323L20.4905 21.7785L20.5063 21.8018C20.638 21.9941 20.797 22.1663 20.979 22.3138L20.9992 22.3302L16.1221 27.1829ZM15.6611 26.6497C15.8076 26.8097 15.9622 26.9669 16.1212 27.1176L20.9293 22.3336C20.7595 22.193 20.6098 22.0309 20.4838 21.8513L15.6611 26.6497Z" fill="#D0D5D5"/>
<path d="M24.5136 21.815C24.3804 22.0096 24.2195 22.1837 24.0364 22.332L28.879 27.1502C29.0496 26.9893 29.2141 26.8222 29.372 26.6489L24.5136 21.815Z" fill="#D0D5D5"/>
<path d="M28.8785 27.1829L24.0013 22.3302L24.0216 22.3138C24.2036 22.1663 24.3626 21.9941 24.4943 21.8018L24.5102 21.7785L29.4044 26.6481L29.3893 26.6647C29.2331 26.8362 29.0668 27.0053 28.895 27.1673L28.8785 27.1829ZM24.0713 22.3337L28.8793 27.1176C29.0388 26.9664 29.1934 26.8092 29.3395 26.6497L24.5169 21.8513C24.3909 22.0311 24.2411 22.1931 24.0713 22.3337Z" fill="#D0D5D5"/>
<path d="M29.1617 20.8303C30.1196 20.8303 30.8961 20.0538 30.8961 19.0959C30.8961 18.1381 30.1196 17.3616 29.1617 17.3616C28.2039 17.3616 27.4274 18.1381 27.4274 19.0959C27.4274 20.0538 28.2039 20.8303 29.1617 20.8303Z" fill="#0481BF"/>
<path d="M15.1637 19.8548C16.1215 19.8548 16.898 19.0783 16.898 18.1205C16.898 17.1626 16.1215 16.3861 15.1637 16.3861C14.2058 16.3861 13.4293 17.1626 13.4293 18.1205C13.4293 19.0783 14.2058 19.8548 15.1637 19.8548Z" fill="#F7931E"/>
<path d="M25.0311 27.4845C25.9889 27.4845 26.7654 26.708 26.7654 25.7501C26.7654 24.7923 25.9889 24.0158 25.0311 24.0158C24.0732 24.0158 23.2968 24.7923 23.2968 25.7501C23.2968 26.708 24.0732 27.4845 25.0311 27.4845Z" fill="#0481BF"/>
<path d="M12.8801 13.7479C12.786 13.8416 12.6321 13.8415 12.538 13.7479L12.0647 13.277C11.9706 13.1835 11.9706 13.0302 12.0647 12.9366L14.5149 10.4988C14.609 10.4051 14.7629 10.4051 14.857 10.4988L15.3304 10.9697C15.4245 11.0634 15.4245 11.2165 15.3304 11.3101L12.8801 13.7479Z" fill="#6ECAD5"/>
<path d="M22.5002 30.0317C17.1929 30.0317 12.8751 25.7347 12.8751 20.4531C12.8751 15.1715 17.1929 10.8746 22.5002 10.8746C27.8075 10.8746 32.1253 15.1715 32.1253 20.4531C32.1254 25.7347 27.8075 30.0317 22.5002 30.0317ZM22.5002 11.5777C17.5806 11.5777 13.5782 15.5592 13.5782 20.4531C13.5782 25.347 17.5806 29.3285 22.5002 29.3285C27.4198 29.3285 31.4222 25.3471 31.4222 20.4531C31.4223 15.5592 27.4198 11.5777 22.5002 11.5777Z" fill="#C7FFEE"/>
<path d="M18.4463 32.0398L21.9958 24.6666C22.0888 24.4734 22.285 24.3505 22.5002 24.3505C22.7156 24.3505 22.9118 24.4734 23.0047 24.6666L26.5542 32.0398H28.5157L23.0047 20.5923C22.9118 20.3992 22.7156 20.2762 22.5002 20.2762C22.285 20.2762 22.0888 20.3992 21.9958 20.5923L16.485 32.0398H18.4463Z" fill="#D0D5D5"/>
<g opacity="0.1">
<path d="M22.9733 20.5363C22.8718 20.3759 22.6939 20.2762 22.5002 20.2762C22.285 20.2762 22.0888 20.3992 21.9958 20.5923L16.485 32.0398H17.4311L22.9419 20.5923C22.9513 20.5729 22.962 20.5543 22.9733 20.5363Z" fill="black"/>
</g>
<path d="M25.1233 20.4531C25.1233 21.8944 23.949 23.0629 22.5003 23.0629C21.0518 23.0629 19.8773 21.8944 19.8773 20.4531C19.8773 19.0118 21.0518 17.8434 22.5003 17.8434C23.949 17.8434 25.1233 19.0118 25.1233 20.4531Z" fill="#0059AD"/>
<path opacity="0.1" d="M20.5849 20.4531C20.5849 19.1312 21.573 18.0396 22.8541 17.8677C22.7383 17.8521 22.6203 17.8434 22.5003 17.8434C21.0518 17.8434 19.8773 19.0119 19.8773 20.4531C19.8773 21.8944 21.0518 23.0629 22.5003 23.0629C22.6203 23.0629 22.7383 23.0541 22.8541 23.0385C21.573 22.8665 20.5849 21.7749 20.5849 20.4531Z" fill="black"/>
<path d="M22.5004 21.5623C23.1162 21.5623 23.6154 21.0656 23.6154 20.4529C23.6154 19.8402 23.1162 19.3436 22.5004 19.3436C21.8846 19.3436 21.3854 19.8402 21.3854 20.4529C21.3854 21.0656 21.8846 21.5623 22.5004 21.5623Z" fill="#D0D5D5"/>
<path d="M29.6962 33.1272C29.6962 33.2599 29.5876 33.3684 29.4549 33.3684H15.5319C15.3991 33.3684 15.2905 33.2599 15.2905 33.1272V32.1747C15.2905 32.042 15.3991 31.9335 15.5319 31.9335H29.4549C29.5876 31.9335 29.6962 32.042 29.6962 32.1747V33.1272Z" fill="#0059AD"/>
<path opacity="0.1" d="M16.369 33.1272V32.1747C16.369 32.042 16.4776 31.9335 16.6104 31.9335H15.5319C15.3991 31.9335 15.2905 32.042 15.2905 32.1747V33.1272C15.2905 33.2599 15.3991 33.3684 15.5319 33.3684H16.6104C16.4776 33.3684 16.369 33.2599 16.369 33.1272Z" fill="black"/>
<path d="M32.8342 33.7587C32.8342 33.8914 32.7256 34 32.5928 34H12.4077C12.275 34 12.1664 33.8914 12.1664 33.7587V33.155C12.1664 33.0223 12.275 32.9137 12.4077 32.9137H32.5928C32.7256 32.9137 32.8342 33.0223 32.8342 33.155V33.7587Z" fill="#0481BF"/>
<path opacity="0.1" d="M13.1285 33.7587V33.155C13.1285 33.0223 13.2371 32.9137 13.3698 32.9137H12.4077C12.275 32.9137 12.1664 33.0223 12.1664 33.155V33.7587C12.1664 33.8914 12.275 34 12.4077 34H13.3699C13.2371 34 13.1285 33.8914 13.1285 33.7587Z" fill="black"/>
</g>
<defs>
<clipPath id="clip0_3077_4701">
<rect width="24" height="24" fill="white" transform="translate(10.5 10)"/>
</clipPath>
</defs>
</svg>
