<svg width="113" height="24" viewBox="0 0 113 24" fill="none" xmlns="http://www.w3.org/2000/svg">
<g clip-path="url(#clip0_3077_2892)">
<path d="M11.2035 13.1806C12.6098 12.5321 13.8175 11.957 14.6875 11.4309C15.5772 10.8628 16.3695 10.1637 17.0354 9.359C17.6974 8.54127 18.073 7.54144 18.1081 6.504C18.2063 5.42857 17.9742 4.34902 17.4409 3.40022C16.8765 2.49758 16.094 1.74048 15.1605 1.19372C14.1381 0.645673 13.025 0.273078 11.8708 0.0925063C11.312 0.00927729 10.7452 -0.011252 10.1816 0.0313279H10.1351L6.75675 0.288277L5.02955 2.68647V3.26563C4.91132 3.46936 4.82185 3.68746 4.76351 3.91412L5.09712 4.04055L5.16469 5.98603L8.51772 5.53331C9.12161 3.9753 10.0591 3.33088 11.2035 3.52258C11.4577 3.5645 11.7007 3.65499 11.9183 3.78876C12.1358 3.92252 12.3235 4.09687 12.4704 4.30158C12.7241 4.75783 12.8411 5.27335 12.8083 5.79026C12.7407 6.504 12.3395 7.21775 11.6681 8.05794C10.8735 8.89407 9.99666 9.65354 9.04982 10.3256C8.06424 11.0342 7.03473 11.6839 5.96705 12.2711C4.95776 12.8502 4.22297 13.307 3.74999 13.564L3.55151 16.5454L16.8327 20.624L17.0988 16.5454L8.86823 14.2777V14.2125C9.05404 14.0861 9.86063 13.7638 11.2035 13.1806Z" fill="#BF2824"/>
<path d="M13.4164 21.2113L13.75 17.0675L5.36739 14.7345V14.6856C5.56587 14.6203 6.30489 14.2329 7.71536 13.6496C8.9358 13.1124 10.1218 12.505 11.2669 11.8306C12.1887 11.2758 12.9869 10.5493 13.6148 9.69343C14.2658 8.86987 14.6402 7.87356 14.6875 6.83844C14.7908 5.73316 14.5275 4.62479 13.9358 3.67347C13.3833 2.74055 12.5695 1.97715 11.5878 1.47105C10.5687 0.928939 9.46457 0.551449 8.31925 0.353524C7.26589 0.18826 6.18748 0.255186 5.16469 0.549295C4.25167 0.793156 3.41952 1.26104 2.74915 1.90746C2.05611 2.54948 1.54568 3.35286 1.26689 4.24039L5.15624 5.9901C5.76013 4.35867 6.56671 3.65716 7.69002 3.85293C7.94442 3.8928 8.18783 3.98202 8.40556 4.1152C8.6233 4.24839 8.81085 4.42278 8.95691 4.62786C9.21054 5.0856 9.3275 5.60241 9.29475 6.12061C9.15637 6.98266 8.73264 7.77825 8.08698 8.38829C7.3 9.22304 6.43013 9.9812 5.48986 10.6519C4.50428 11.3604 3.47477 12.0102 2.40709 12.5974C1.3429 13.1806 0.603884 13.6333 0.202702 13.8943L0 16.8717L13.4164 21.2113Z" fill="#E74B4A"/>
<path d="M21.3302 12.7931L23.4079 6.12062L22.4028 3.52665L21.4653 3.67348C21.4303 3.19809 21.3118 2.73191 21.1148 2.29492L22.7238 1.07136L18.5008 0.488122C17.786 0.414501 17.0641 0.436461 16.3556 0.553379C15.2992 0.746988 14.294 1.14367 13.3995 1.71985C12.4475 2.36625 11.6284 3.17811 10.9839 4.11396C10.2557 5.1096 9.73241 6.23116 9.44256 7.4176L13.1292 8.32712L17.4409 5.08058C17.4409 5.2111 17.5084 5.40687 17.5084 5.60264C17.4279 6.51052 17.1533 7.39241 16.7018 8.19253C16.0417 9.40306 15.3026 10.5719 14.489 11.6919C13.5473 12.9848 12.6098 14.2818 11.4696 15.64C10.3294 16.9981 9.5228 18.0382 8.98648 18.7642V22.1983L12.6689 23.997L25.6799 14.2084L21.3302 12.7931Z" fill="#1E5D65"/>
<path d="M25.7601 17.716V14.086L18.712 17.0022V16.937C18.9147 16.7412 19.5861 15.8357 20.8615 14.4123C22.0692 12.9848 23.0067 11.8184 23.6782 10.8477C24.3192 9.93296 24.8585 8.95549 25.2871 7.93149C25.6735 7.02527 25.8785 6.05648 25.891 5.07649C25.9423 4.18819 25.7077 3.30633 25.2196 2.55186C24.7833 1.90761 24.1128 1.44481 23.3403 1.25488C22.3992 1.00342 21.4083 0.981003 20.4561 1.18962C19.3364 1.40493 18.268 1.81987 17.3057 2.41319C16.2741 3.08724 15.3854 3.94555 14.6875 4.9419C13.9554 5.99417 13.4155 7.15984 13.0912 8.38829L17.7365 8.25777C18.2052 6.3123 19.0034 5.21109 20.0844 4.95414C20.2887 4.87193 20.5142 4.85249 20.7303 4.89846C20.9464 4.94444 21.1426 5.0536 21.2922 5.21109C21.5691 5.59592 21.7004 6.06114 21.6638 6.52846C21.6016 7.48911 21.3034 8.42164 20.7939 9.24886C20.1141 10.5239 19.3525 11.7567 18.5135 12.94C17.5718 14.3022 16.4991 15.6604 15.3589 17.0879C14.1512 18.5765 13.2812 19.6777 12.7449 20.3262V23.8909L25.7601 17.716Z" fill="#32909D"/>
<path d="M36.626 6.086C36.518 6.086 36.464 6.14 36.464 6.248V13.556C36.464 13.664 36.518 13.718 36.626 13.718H42.224C42.86 13.718 43.4 13.826 43.844 14.042C44.3 14.246 44.678 14.534 44.978 14.906C45.278 15.266 45.518 15.692 45.698 16.184C45.878 16.664 46.022 17.18 46.13 17.732H32V5.546C32 5.018 32.108 4.544 32.324 4.124C32.54 3.692 32.822 3.326 33.17 3.026C33.53 2.726 33.938 2.492 34.394 2.324C34.862 2.156 35.342 2.072 35.834 2.072H46.13C46.022 2.612 45.878 3.128 45.698 3.62C45.518 4.112 45.272 4.544 44.96 4.916C44.66 5.288 44.288 5.582 43.844 5.798C43.4 6.014 42.86 6.122 42.224 6.122L36.626 6.086Z" fill="white"/>
<path d="M55.8005 13.79C55.8005 13.502 55.8125 13.22 55.8365 12.944C55.8605 12.656 55.8725 12.374 55.8725 12.098C55.8725 11.978 55.8125 11.918 55.6925 11.918H50.8865C50.7665 11.918 50.7065 11.978 50.7065 12.098V14.276C50.7065 14.912 50.5685 15.446 50.2925 15.878C50.0285 16.298 49.6805 16.646 49.2485 16.922C48.8285 17.186 48.3545 17.384 47.8265 17.516C47.2985 17.648 46.7705 17.744 46.2425 17.804V5.564C46.2425 5.036 46.3505 4.562 46.5665 4.142C46.7825 3.71 47.0645 3.344 47.4125 3.044C47.7725 2.732 48.1805 2.492 48.6365 2.324C49.1045 2.156 49.5845 2.072 50.0765 2.072H60.3365V17.804C59.7005 17.732 59.1065 17.618 58.5545 17.462C58.0025 17.306 57.5225 17.084 57.1145 16.796C56.7065 16.496 56.3825 16.106 56.1425 15.626C55.9145 15.134 55.8005 14.522 55.8005 13.79ZM55.8725 6.266C55.8725 6.146 55.8125 6.086 55.6925 6.086H50.8865C50.7665 6.086 50.7065 6.146 50.7065 6.266V7.742C50.7065 7.85 50.7665 7.904 50.8865 7.904H55.6925C55.8125 7.904 55.8725 7.85 55.8725 7.742V6.266Z" fill="white"/>
<path d="M72.0625 17.732H61.7665C61.8745 17.18 62.0185 16.664 62.1985 16.184C62.3785 15.692 62.6185 15.266 62.9185 14.906C63.2185 14.534 63.5905 14.246 64.0345 14.042C64.4905 13.826 65.0365 13.718 65.6725 13.718H71.2705C71.3785 13.718 71.4325 13.664 71.4325 13.556V12.08C71.4325 11.96 71.3785 11.9 71.2705 11.9H61.8385V5.546C61.8385 5.018 61.9465 4.544 62.1625 4.124C62.3785 3.692 62.6605 3.326 63.0085 3.026C63.3685 2.726 63.7765 2.492 64.2325 2.324C64.7005 2.156 65.1805 2.072 65.6725 2.072H75.9685C75.8605 2.612 75.7165 3.128 75.5365 3.62C75.3565 4.112 75.1105 4.544 74.7985 4.916C74.4985 5.288 74.1265 5.582 73.6825 5.798C73.2385 6.014 72.6985 6.122 72.0625 6.122L66.4645 6.086C66.3565 6.086 66.3025 6.14 66.3025 6.248V7.724C66.3025 7.844 66.3565 7.904 66.4645 7.904H75.8965V14.258C75.8965 14.774 75.7885 15.248 75.5725 15.68C75.3565 16.112 75.0685 16.478 74.7085 16.778C74.3605 17.078 73.9525 17.312 73.4845 17.48C73.0285 17.648 72.5545 17.732 72.0625 17.732Z" fill="white"/>
<path d="M76.9599 17.822V5.528C76.9599 5.072 77.0559 4.658 77.2479 4.286C77.4279 3.902 77.6739 3.554 77.9859 3.242C78.2019 3.026 78.4479 2.846 78.7239 2.702C78.9999 2.546 79.2879 2.426 79.5879 2.342C79.8999 2.246 80.2119 2.174 80.5239 2.126C80.8479 2.078 81.1599 2.036 81.4599 2V14.276C81.4599 14.732 81.3639 15.152 81.1719 15.536C80.9919 15.908 80.7459 16.25 80.4339 16.562C80.2179 16.778 79.9659 16.958 79.6779 17.102C79.4019 17.258 79.1079 17.378 78.7959 17.462C78.4959 17.558 78.1899 17.63 77.8779 17.678C77.5659 17.738 77.2599 17.786 76.9599 17.822Z" fill="white"/>
<path d="M92.5707 17.804V6.266C92.5707 6.146 92.5107 6.086 92.3907 6.086H87.5847C87.4647 6.086 87.4047 6.146 87.4047 6.266V14.276C87.4047 14.912 87.2667 15.446 86.9907 15.878C86.7267 16.298 86.3787 16.646 85.9467 16.922C85.5267 17.186 85.0527 17.384 84.5247 17.516C83.9967 17.648 83.4687 17.744 82.9407 17.804V5.564C82.9407 5.036 83.0487 4.562 83.2647 4.142C83.4807 3.71 83.7627 3.344 84.1107 3.044C84.4707 2.732 84.8787 2.492 85.3347 2.324C85.8027 2.156 86.2827 2.072 86.7747 2.072H97.0347V14.276C97.0347 14.912 96.8967 15.446 96.6207 15.878C96.3567 16.298 96.0087 16.646 95.5767 16.922C95.1447 17.186 94.6647 17.384 94.1367 17.516C93.6087 17.648 93.0867 17.744 92.5707 17.804Z" fill="white"/>
<path d="M108.743 17.732H98.5191V5.546C98.5191 5.018 98.6271 4.544 98.8431 4.124C99.0591 3.692 99.3411 3.326 99.6891 3.026C100.049 2.726 100.457 2.492 100.913 2.324C101.381 2.156 101.861 2.072 102.353 2.072H112.577V14.258C112.577 14.774 112.469 15.248 112.253 15.68C112.037 16.112 111.749 16.478 111.389 16.778C111.041 17.078 110.633 17.312 110.165 17.48C109.709 17.648 109.235 17.732 108.743 17.732ZM108.113 6.248C108.113 6.14 108.059 6.086 107.951 6.086H103.145C103.037 6.086 102.983 6.14 102.983 6.248V13.556C102.983 13.664 103.037 13.718 103.145 13.718H107.951C108.059 13.718 108.113 13.664 108.113 13.556V6.248Z" fill="white"/>
</g>
<defs>
<clipPath id="clip0_3077_2892">
<rect width="113" height="24" fill="white"/>
</clipPath>
</defs>
</svg>
