<svg width="32" height="32" viewBox="0 0 32 32" fill="none" xmlns="http://www.w3.org/2000/svg">
<rect width="32" height="32" rx="3" fill="white" fill-opacity="0.17"/>
<g clip-path="url(#clip0_3077_2937)">
<path fill-rule="evenodd" clip-rule="evenodd" d="M19.8565 7.81779C19.9311 7.87909 19.9849 7.95429 20.0143 8.03601V8.66455H22.2058C22.4811 8.66455 22.7043 8.88774 22.7043 9.16305V10.2797C22.7043 12.0204 21.5545 13.4926 19.973 13.9782C19.6268 15.3736 18.1292 16.4238 16.3327 16.4271H14.8898C13.0989 16.4238 11.6051 15.3802 11.2528 13.9914C9.6488 13.5196 8.47778 12.0364 8.47778 10.2797V9.16305C8.47778 8.88774 8.70097 8.66455 8.97628 8.66455H11.1742V8.18166C11.1743 8.04512 11.2403 7.91425 11.3577 7.81779C11.4748 7.7212 11.6338 7.66688 11.7997 7.66675H19.4145C19.5802 7.66726 19.7391 7.7215 19.8565 7.81779ZM20.0143 13.1301C21.1327 12.6673 21.9195 11.5654 21.9195 10.2797V9.44933H20.0143V13.1301ZM11.1678 9.64779V9.44933H9.26256V10.2797C9.26256 11.5654 10.0494 12.6673 11.1678 13.1301V12.6954L11.17 12.6957V9.64744L11.1678 9.64779ZM17.3509 19.0393H16.7713V16.7908C16.6175 16.8048 16.463 16.8116 16.3084 16.8114H14.8655C14.7108 16.8116 14.5563 16.8048 14.4026 16.7908V19.0427H13.8271C13.5563 19.0431 13.2968 19.132 13.1056 19.2899C12.9139 19.4472 12.8059 19.6608 12.8054 19.8837V20.3574C12.9435 20.3414 13.0829 20.3333 13.2224 20.3334H17.9598C18.0993 20.3333 18.2386 20.3414 18.3768 20.3574V19.8837C18.3768 19.4173 17.9175 19.0393 17.3509 19.0393ZM17.962 20.718H13.2205C11.8386 20.718 10.7184 21.6401 10.7184 22.7777V23.375C10.7184 23.5361 10.877 23.6667 11.0728 23.6667H20.1096C20.3038 23.6667 20.4618 23.5382 20.4641 23.3784V22.7777C20.4641 21.6401 19.3438 20.718 17.962 20.718Z" fill="white"/>
</g>
<defs>
<clipPath id="clip0_3077_2937">
<rect width="16" height="16" fill="white" transform="translate(8 8)"/>
</clipPath>
</defs>
</svg>


