<svg width="32" height="32" viewBox="0 0 32 32" fill="none" xmlns="http://www.w3.org/2000/svg">
<rect width="32" height="32" rx="3" fill="white" fill-opacity="0.17"/>
<g clip-path="url(#clip0_3077_2930)">
<path d="M8.98999 22.39C8.98999 22.98 9.43999 23.46 9.98999 23.46H14.99V18.13H8.98999V22.39ZM16.99 23.46H21.99C22.54 23.46 22.99 22.98 22.99 22.39V18.12H16.99V23.46ZM22.99 12.79H21.67C21.86 12.39 21.99 11.94 21.99 11.46C21.99 9.84 20.76 8.53 19.24 8.53C17.94 8.53 17.1 9.24 16.02 10.81C14.95 9.24 14.1 8.53 12.8 8.53C11.28 8.53 10.05 9.85 10.05 11.46C10.05 11.94 10.17 12.39 10.37 12.79H8.98999C8.43999 12.79 7.98999 13.27 7.98999 13.86V16.53C7.98999 16.82 8.20999 17.06 8.48999 17.06H23.49C23.76 17.06 23.99 16.82 23.99 16.53V13.86C23.99 13.27 23.55 12.79 22.99 12.79ZM12.8 12.79C12.11 12.79 11.55 12.19 11.55 11.46C11.55 10.72 12.11 10.13 12.8 10.13C13.42 10.13 13.88 10.24 15.49 12.8H12.8V12.79ZM19.24 12.79H16.55C18.16 10.24 18.6 10.12 19.24 10.12C19.93 10.12 20.49 10.72 20.49 11.45C20.49 12.2 19.93 12.79 19.24 12.79Z" fill="white"/>
</g>
<defs>
<clipPath id="clip0_3077_2930">
<rect width="16" height="16" fill="white" transform="translate(8 8)"/>
</clipPath>
</defs>
</svg>
