<svg width="32" height="32" viewBox="0 0 32 32" fill="none" xmlns="http://www.w3.org/2000/svg">
<rect width="32" height="32" rx="3" fill="white" fill-opacity="0.17"/>
<path d="M17.8123 15.29L14.8063 14.31C14.4594 14.19 14.2193 13.83 14.2193 13.42C14.2193 12.91 14.5839 12.5 15.0375 12.5H16.8785C17.2164 12.5 17.5544 12.62 17.8301 12.83C17.9991 12.96 18.2303 12.93 18.3726 12.77L19.342 11.71C19.5377 11.49 19.511 11.13 19.2886 10.94C18.6127 10.34 17.7589 10 16.8874 10V8.5C16.8874 8.22 16.6828 8 16.4427 8H15.5533C15.3043 8 15.1086 8.22 15.1086 8.5V10H15.0375C13.2676 10 11.8447 11.71 12.0136 13.74C12.1293 15.18 13.1076 16.35 14.3438 16.76L17.1897 17.7C17.5366 17.82 17.7767 18.18 17.7767 18.58C17.7767 19.09 17.4121 19.5 16.9585 19.5H15.1175C14.7796 19.5 14.4416 19.38 14.1659 19.17C13.9969 19.04 13.7657 19.07 13.6234 19.23L12.654 20.3C12.4583 20.52 12.485 20.87 12.7073 21.07C13.3833 21.66 14.2371 22 15.1086 22V23.5C15.1086 23.77 15.3132 24 15.5533 24H16.4427C16.6917 24 16.8874 23.77 16.8874 23.5V21.99C18.1858 21.96 19.3954 21.1 19.8223 19.72C20.427 17.8 19.4221 15.82 17.8123 15.29Z" fill="#41B15B"/>
</svg>
