<svg width="32" height="32" viewBox="0 0 32 32" fill="none" xmlns="http://www.w3.org/2000/svg">
<rect width="32" height="32" rx="3" fill="white" fill-opacity="0.17"/>
<path d="M19.935 14.579L21.1632 12.371C21.2438 12.2248 21.2151 12.1127 21.0769 12.0339C20.9268 11.966 20.8116 12.0004 20.731 12.1348L19.4857 14.3605C18.3899 13.8883 17.2309 13.6518 16.0087 13.6518C14.7863 13.6518 13.6272 13.8883 12.5318 14.3605L11.2864 12.1348C11.2055 12.0004 11.0902 11.9663 10.9405 12.0339C10.8019 12.1131 10.7733 12.2248 10.8542 12.371L12.0824 14.579C10.837 15.198 9.84515 16.06 9.10715 17.1669C8.36916 18.2745 8 19.4848 8 20.8H24C24 19.4851 23.6308 18.2747 22.8928 17.1669C22.1548 16.06 21.1686 15.198 19.935 14.579ZM12.8344 17.7906C12.7015 17.9203 12.5429 17.9849 12.3585 17.9849C12.1738 17.9849 12.0183 17.9203 11.8916 17.7906C11.7648 17.6615 11.7014 17.5075 11.7014 17.3272C11.7014 17.1475 11.7648 16.9932 11.8916 16.8637C12.0183 16.7346 12.1741 16.67 12.3585 16.67C12.5429 16.67 12.7015 16.7346 12.8344 16.8637C12.9669 16.9935 13.0334 17.1475 13.0334 17.3272C13.0331 17.5072 12.9666 17.6615 12.8344 17.7906ZM20.1251 17.7906C19.9981 17.9203 19.8423 17.9849 19.6582 17.9849C19.4734 17.9849 19.3149 17.9203 19.1823 17.7906C19.0495 17.6615 18.9833 17.5075 18.9833 17.3272C18.9833 17.1475 19.0495 16.9932 19.1823 16.8637C19.3149 16.7346 19.4734 16.67 19.6582 16.67C19.8426 16.67 19.998 16.7346 20.1251 16.8637C20.252 16.9935 20.3153 17.1475 20.3153 17.3272C20.3153 17.5072 20.252 17.6615 20.1251 17.7906Z" fill="white"/>
</svg>
